<svg width="421" height="185" viewBox="0 0 421 185" version="1.1" xmlns="http://www.w3.org/2000/svg" xmlns:xlink="http://www.w3.org/1999/xlink">
<g id="Canvas__404" transform="translate(-39750 -796)">
<g id="404__404">
<use xlink:href="#path0__404" transform="translate(39746 711)"/>
</g>
</g>
<defs>
<path id="path0__404" d="M 138.794 230.013L 117.31 230.013L 117.31 267L 80.4443 267L 80.4443 230.013L 4.27246 230.013L 4.27246 203.768L 82.5195 88.5332L 117.31 88.5332L 117.31 200.716L 138.794 200.716L 138.794 230.013ZM 80.4443 200.716L 80.4443 170.442C 80.4443 165.397 80.6478 158.073 81.0547 148.47C 81.4616 138.867 81.7871 133.292 82.0312 131.746L 81.0547 131.746C 78.0436 138.419 74.4222 144.93 70.1904 151.277L 37.4756 200.716L 80.4443 200.716ZM 276.611 177.767C 276.611 208.935 271.484 232.007 261.23 246.98C 251.058 261.954 235.352 269.441 214.111 269.441C 193.522 269.441 177.979 261.71 167.48 246.248C 157.064 230.786 151.855 207.959 151.855 177.767C 151.855 146.272 156.942 123.079 167.114 108.187C 177.287 93.2126 192.952 85.7256 214.111 85.7256C 234.701 85.7256 250.244 93.5381 260.742 109.163C 271.322 124.788 276.611 147.656 276.611 177.767ZM 189.331 177.767C 189.331 199.658 191.203 215.364 194.946 224.886C 198.771 234.326 205.16 239.046 214.111 239.046C 222.9 239.046 229.248 234.244 233.154 224.642C 237.061 215.039 239.014 199.414 239.014 177.767C 239.014 155.875 237.02 140.169 233.032 130.647C 229.126 121.045 222.819 116.243 214.111 116.243C 205.241 116.243 198.893 121.045 195.068 130.647C 191.243 140.169 189.331 155.875 189.331 177.767ZM 424.438 230.013L 402.954 230.013L 402.954 267L 366.089 267L 366.089 230.013L 289.917 230.013L 289.917 203.768L 368.164 88.5332L 402.954 88.5332L 402.954 200.716L 424.438 200.716L 424.438 230.013ZM 366.089 200.716L 366.089 170.442C 366.089 165.397 366.292 158.073 366.699 148.47C 367.106 138.867 367.432 133.292 367.676 131.746L 366.699 131.746C 363.688 138.419 360.067 144.93 355.835 151.277L 323.12 200.716L 366.089 200.716Z"/>
</defs>
</svg>
