<svg width="19" height="19" viewBox="0 0 19 19" version="1.1" xmlns="http://www.w3.org/2000/svg" xmlns:xlink="http://www.w3.org/1999/xlink">
<title>calendar</title>
<desc>Created using Figma</desc>
<g id="Canvas" transform="translate(-39782 222)">
<g id="calendar">
<g id="Group">
<g id="Group">
<g id="Vector">
<use xlink:href="#path0_fill" transform="translate(39782 -222)" fill="#CFCFCF"/>
</g>
</g>
</g>
<g id="Group">
<g id="Group">
<g id="Vector">
<use xlink:href="#path1_fill" transform="translate(39784.8 -213.465)" fill="#CFCFCF"/>
</g>
</g>
</g>
<g id="Group">
<g id="Group">
<g id="Vector">
<use xlink:href="#path1_fill" transform="translate(39787.8 -213.465)" fill="#CFCFCF"/>
</g>
</g>
</g>
<g id="Group">
<g id="Group">
<g id="Vector">
<use xlink:href="#path1_fill" transform="translate(39790.8 -213.465)" fill="#CFCFCF"/>
</g>
</g>
</g>
<g id="Group">
<g id="Group">
<g id="Vector">
<use xlink:href="#path1_fill" transform="translate(39793.7 -213.465)" fill="#CFCFCF"/>
</g>
</g>
</g>
<g id="Group">
<g id="Group">
<g id="Vector">
<use xlink:href="#path1_fill" transform="translate(39796.7 -213.465)" fill="#CFCFCF"/>
</g>
</g>
</g>
<g id="Group">
<g id="Group">
<g id="Vector">
<use xlink:href="#path1_fill" transform="translate(39784.8 -210.496)" fill="#CFCFCF"/>
</g>
</g>
</g>
<g id="Group">
<g id="Group">
<g id="Vector">
<use xlink:href="#path1_fill" transform="translate(39787.8 -210.496)" fill="#CFCFCF"/>
</g>
</g>
</g>
<g id="Group">
<g id="Group">
<g id="Vector">
<use xlink:href="#path1_fill" transform="translate(39790.8 -210.496)" fill="#CFCFCF"/>
</g>
</g>
</g>
<g id="Group">
<g id="Group">
<g id="Vector">
<use xlink:href="#path1_fill" transform="translate(39793.7 -210.496)" fill="#CFCFCF"/>
</g>
</g>
</g>
<g id="Group">
<g id="Group">
<g id="Vector">
<use xlink:href="#path1_fill" transform="translate(39784.8 -207.527)" fill="#CFCFCF"/>
</g>
</g>
</g>
<g id="Group">
<g id="Group">
<g id="Vector">
<use xlink:href="#path1_fill" transform="translate(39787.8 -207.527)" fill="#CFCFCF"/>
</g>
</g>
</g>
<g id="Group">
<g id="Group">
<g id="Vector">
<use xlink:href="#path1_fill" transform="translate(39790.8 -207.527)" fill="#CFCFCF"/>
</g>
</g>
</g>
<g id="Group">
<g id="Group">
<g id="Vector">
<use xlink:href="#path1_fill" transform="translate(39793.7 -207.527)" fill="#CFCFCF"/>
</g>
</g>
</g>
<g id="Group">
<g id="Group">
<g id="Vector">
<use xlink:href="#path1_fill" transform="translate(39796.7 -210.496)" fill="#CFCFCF"/>
</g>
</g>
</g>
</g>
</g>
<defs>
<path id="path0_fill" d="M 16.7734 1.48438L 15.8828 1.48438L 15.8828 0L 14.3984 0L 14.3984 1.48438L 4.60156 1.48438L 4.60156 0L 3.11719 0L 3.11719 1.48438L 2.22656 1.48438C 0.998836 1.48438 0 2.48321 0 3.71094L 0 16.7734C 0 18.0012 0.998836 19 2.22656 19L 16.7734 19C 18.0012 19 19 18.0012 19 16.7734L 19 3.71094C 19 2.48321 18.0012 1.48438 16.7734 1.48438ZM 17.5156 16.7734C 17.5156 17.1827 17.1827 17.5156 16.7734 17.5156L 2.22656 17.5156C 1.81732 17.5156 1.48438 17.1827 1.48438 16.7734L 1.48438 6.97656L 17.5156 6.97656L 17.5156 16.7734ZM 17.5156 5.49219L 1.48438 5.49219L 1.48438 3.71094C 1.48438 3.3017 1.81732 2.96875 2.22656 2.96875L 3.11719 2.96875L 3.11719 4.45312L 4.60156 4.45312L 4.60156 2.96875L 14.3984 2.96875L 14.3984 4.45312L 15.8828 4.45312L 15.8828 2.96875L 16.7734 2.96875C 17.1827 2.96875 17.5156 3.3017 17.5156 3.71094L 17.5156 5.49219Z"/>
<path id="path1_fill" d="M 1.48438 0L 0 0L 0 1.48438L 1.48438 1.48438L 1.48438 0Z"/>
</defs>
</svg>
